HIERARCHY
ROOT Hips
{
	OFFSET 55.512100 -24.198915 94.039192
	CHANNELS 6 Xposition Yposition Zposition Xrotation Yrotation Zrotation
	JOINT spine
	{
		OFFSET 0.000000 -0.429888 7.475601
		CHANNELS 3 Xrotation Yrotation Zrotation
		JOINT spine1
		{
			OFFSET 0.000000 -0.000002 9.923012
			CHANNELS 3 Xrotation Yrotation Zrotation
			JOINT spine2
			{
				OFFSET 0.000000 0.000000 9.508041
				CHANNELS 3 Xrotation Yrotation Zrotation
				JOINT Neck
				{
					OFFSET 0.000000 -1.163843 24.411102
					CHANNELS 3 Xrotation Yrotation Zrotation
					JOINT Head
					{
						OFFSET 0.000000 -0.000002 7.375229
						CHANNELS 3 Xrotation Yrotation Zrotation
						End Site
						{
							OFFSET 0.000000 5.887405 17.852203
						}
					}
				}
				JOINT RightShoulder
				{
					OFFSET -4.003559 0.557467 10.267914
					CHANNELS 3 Xrotation Yrotation Zrotation
					JOINT RightArm
					{
						OFFSET 0.000000 -0.000002 13.467300
						CHANNELS 3 Xrotation Yrotation Zrotation
						JOINT RightArmRoll
						{
							OFFSET 0.000000 -0.000002 6.798584
							CHANNELS 3 Xrotation Yrotation Zrotation
							JOINT RightForeArm
							{
								OFFSET 0.000000 -0.000004 19.801804
								CHANNELS 3 Xrotation Yrotation Zrotation
								JOINT RightForeArmRoll
								{
									OFFSET 0.000000 0.000000 7.629044
									CHANNELS 3 Xrotation Yrotation Zrotation
									JOINT RightHand
									{
										OFFSET 0.000000 -0.000004 15.309799
										CHANNELS 3 Xrotation Yrotation Zrotation
										End Site
										{
											OFFSET 0.000000 0.000000 0.100006
										}
									}
								}
							}
						}
					}
				}
				JOINT LeftShoulder
				{
					OFFSET 4.003559 0.557467 10.267914
					CHANNELS 3 Xrotation Yrotation Zrotation
					JOINT LeftArm
					{
						OFFSET 0.000000 -0.000002 13.467300
						CHANNELS 3 Xrotation Yrotation Zrotation
						JOINT LeftArmRoll
						{
							OFFSET 0.000000 -0.000002 6.798584
							CHANNELS 3 Xrotation Yrotation Zrotation
							JOINT LeftForeArm
							{
								OFFSET 0.000000 -0.000004 19.801804
								CHANNELS 3 Xrotation Yrotation Zrotation
								JOINT LeftForeArmRoll
								{
									OFFSET 0.000000 0.000000 7.629044
									CHANNELS 3 Xrotation Yrotation Zrotation
									JOINT LeftHand
									{
										OFFSET 0.000000 -0.000004 15.309799
										CHANNELS 3 Xrotation Yrotation Zrotation
										End Site
										{
											OFFSET 0.000000 0.000000 0.100006
										}
									}
								}
							}
						}
					}
				}
			}
		}
	}
	JOINT RightUpLeg
	{
		OFFSET -6.626091 1.019270 -1.215042
		CHANNELS 3 Xrotation Yrotation Zrotation
		JOINT RightUpLegRoll
		{
			OFFSET 0.000000 -0.000002 17.951698
			CHANNELS 3 Xrotation Yrotation Zrotation
			JOINT RightLeg
			{
				OFFSET 0.000000 0.000002 -22.230400
				CHANNELS 3 Xrotation Yrotation Zrotation
				JOINT RightLegRoll
				{
					OFFSET 0.000000 -0.000002 22.303200
					CHANNELS 3 Xrotation Yrotation Zrotation
					JOINT RightFoot
					{
						OFFSET 0.000000 -0.000004 18.563599
						CHANNELS 3 Xrotation Yrotation Zrotation
						JOINT RightToeBase
						{
							OFFSET 0.000000 -0.000002 15.518295
							CHANNELS 3 Xrotation Yrotation Zrotation
							End Site
							{
								OFFSET 0.006577 0.866261 7.515381
							}
						}
					}
				}
			}
		}
	}
	JOINT LeftUpLeg
	{
		OFFSET 6.626091 1.019270 -1.215042
		CHANNELS 3 Xrotation Yrotation Zrotation
		JOINT LeftUpLegRoll
		{
			OFFSET 0.000000 -0.000002 17.951797
			CHANNELS 3 Xrotation Yrotation Zrotation
			JOINT LeftLeg
			{
				OFFSET 0.000000 -0.000004 22.230309
				CHANNELS 3 Xrotation Yrotation Zrotation
				JOINT LeftLegRoll
				{
					OFFSET 0.000000 -0.000004 22.509308
					CHANNELS 3 Xrotation Yrotation Zrotation
					JOINT LeftFoot
					{
						OFFSET 0.000000 -0.000004 18.357498
						CHANNELS 3 Xrotation Yrotation Zrotation
						JOINT LeftToeBase
						{
							OFFSET 0.000000 -0.000002 15.518295
							CHANNELS 3 Xrotation Yrotation Zrotation
							End Site
							{
								OFFSET -0.029476 0.866261 7.515381
							}
						}
					}
				}
			}
		}
	}
}
MOTION
Frames: 6
Frame Time: 0.041667
54.334095 -2.426453 81.000893 11.618682 3.370804 1.790461 0.517836 0.190997 -0.314907 5.039588 0.376595 -0.635989 6.684627 0.368947 -0.640455 -27.652805 -4.381758 -2.484868 10.660038 -0.935068 -0.512490 -9.969067 -79.855341 -12.899365 -84.511686 -124.751602 -64.500632 -0.000000 0.000001 -0.000001 0.037900 -4.980429 -1.241590 0.000008 -0.000002 -3.044261 -5.000209 -7.999460 0.000069 -21.549617 61.011607 25.441604 -55.971098 129.904829 37.877651 0.000002 -0.000003 -0.000003 0.532411 -1.109843 0.842214 -0.000005 0.000004 3.005141 -5.000195 7.999999 -0.000006 -52.860309 176.381767 3.921088 179.999991 0.000005 -1.405006 122.366254 -4.193520 -4.355518 -0.000009 0.000002 1.359181 77.007576 8.878694 -4.983090 30.269465 -7.326583 0.591052 -55.165218 179.568132 0.452498 0.000009 -0.000004 -1.164780 -59.260682 -0.487705 2.094601 -0.000004 0.000002 -1.475560 76.027409 -7.294908 -0.288325 30.066855 7.330644 -0.591647 
54.351997 -2.561670 81.187286 11.553177 3.338463 1.811213 0.490662 0.188959 -0.310710 4.985216 0.372717 -0.626745 6.630251 0.365181 -0.631165 -27.349566 -4.208230 -2.448121 10.585456 -1.007599 -0.546101 -9.964766 -79.759411 -12.890046 -84.398284 -124.644027 -64.387585 -0.000001 -0.000000 0.000000 0.038129 -4.986379 -1.240745 0.000008 -0.000002 -3.044201 -5.000209 -7.999460 0.000068 -21.501681 61.100086 25.383718 -55.983202 129.791749 37.897308 0.000002 -0.000003 -0.000001 0.520267 -1.053326 0.841802 -0.000004 0.000004 3.005121 -5.000194 7.999998 -0.000003 -52.479038 176.377136 3.809451 179.999991 0.000005 -1.398995 122.738527 -4.204492 -4.321490 -0.000010 0.000003 1.345651 76.921631 8.871539 -4.934654 30.294126 -7.326540 0.594283 -54.785016 179.594606 0.499955 0.000010 -0.000004 -1.162020 -58.893204 -0.448235 2.097379 -0.000005 0.000003 -1.459960 75.920080 -7.296017 -0.299406 30.118795 7.330435 -0.598234 
54.361797 -2.689611 81.347282 11.484068 3.305967 1.833454 0.463782 0.187102 -0.306434 4.931421 0.369148 -0.617417 6.576471 0.361725 -0.621794 -27.040642 -4.037195 -2.413238 10.509885 -1.079888 -0.580012 -9.965877 -79.666568 -12.886565 -84.289848 -124.535112 -64.280481 -0.000000 -0.000000 0.000000 0.038351 -4.993431 -1.239893 0.000008 -0.000001 -3.044129 -5.000209 -7.999460 0.000068 -21.455209 61.185996 25.327607 -55.991603 129.680868 37.913677 0.000002 -0.000003 -0.000001 0.508256 -0.997997 0.841385 -0.000005 0.000005 3.005101 -5.000195 7.999999 -0.000000 -52.093347 176.373994 3.699246 179.999991 0.000005 -1.392001 123.112138 -4.214794 -4.287518 -0.000010 0.000003 1.332231 76.835926 8.864599 -4.887026 30.318301 -7.326513 0.597450 -54.399810 179.622760 0.546410 0.000009 -0.000004 -1.159341 -58.523171 -0.409113 2.099602 -0.000005 0.000003 -1.444410 75.814014 -7.297261 -0.309627 30.168416 7.330224 -0.604452 
54.373795 -2.828714 81.515083 11.411269 3.273406 1.857235 0.437268 0.185485 -0.302091 4.878369 0.366004 -0.608040 6.523410 0.358694 -0.612380 -26.726452 -3.869764 -2.380479 10.433934 -1.151731 -0.614161 -9.972454 -79.577810 -12.889092 -84.187771 -124.424805 -64.180774 0.000000 -0.000001 -0.000000 0.038567 -5.001789 -1.239006 0.000007 -0.000002 -3.044061 -5.000209 -7.999460 0.000068 -21.410924 61.268812 25.274184 -55.997569 129.571844 37.928802 0.000002 -0.000003 -0.000003 0.496465 -0.944447 0.840975 -0.000004 0.000004 3.005080 -5.000193 7.999998 -0.000002 -51.702780 176.371740 3.591764 179.999991 0.000005 -1.386004 123.486883 -4.225526 -4.254249 -0.000010 0.000003 1.318901 76.751054 8.857859 -4.840546 30.341548 -7.326478 0.600497 -54.009427 179.652102 0.592368 0.000012 -0.000004 -1.156750 -58.150421 -0.370174 2.101276 -0.000004 0.000002 -1.428910 75.709696 -7.298769 -0.318874 30.215015 7.330026 -0.610192 
54.387497 -2.959791 81.682785 11.334565 3.240826 1.882630 0.411179 0.184168 -0.297683 4.826169 0.363396 -0.598648 6.471217 0.356199 -0.602958 -26.407412 -3.707007 -2.350053 10.358087 -1.222917 -0.648489 -9.984962 -79.494338 -12.898167 -84.093760 -124.313104 -64.090281 -0.000001 -0.000001 -0.000001 0.038766 -5.011661 -1.238086 0.000008 -0.000001 -3.043980 -5.000209 -7.999461 0.000070 -21.369840 61.348042 25.224616 -55.998050 129.466372 37.938924 0.000001 -0.000003 -0.000001 0.484984 -0.893281 0.840556 -0.000005 0.000004 3.005071 -5.000195 7.999999 -0.000003 -51.306943 176.371631 3.485892 179.999991 0.000005 -1.379994 123.863158 -4.236767 -4.220673 -0.000009 0.000002 1.305641 76.667487 8.851474 -4.795836 30.363480 -7.326452 0.603387 -53.613276 179.682019 0.638367 0.000010 -0.000004 -1.154260 -57.774507 -0.331341 2.102423 -0.000004 0.000002 -1.413480 75.607913 -7.300543 -0.326791 30.257861 7.329829 -0.615362 
54.408497 -3.070429 81.867500 11.253669 3.208299 1.909706 0.385590 0.183212 -0.293222 4.774975 0.361438 -0.589279 6.420012 0.354352 -0.593565 -26.083709 -3.550038 -2.322135 10.282948 -1.293256 -0.682924 -10.003915 -79.417458 -12.914380 -84.009367 -124.199955 -64.010545 -0.000001 0.000000 -0.000001 0.038942 -5.023260 -1.237103 0.000007 -0.000002 -3.043901 -5.000209 -7.999460 0.000069 -21.332783 61.422949 25.179882 -55.995311 129.363551 37.947066 0.000002 -0.000002 -0.000003 0.473899 -0.845099 0.840132 -0.000005 0.000004 3.005050 -5.000195 7.999999 -0.000002 -50.905550 176.372410 3.383683 179.999991 0.000005 -1.373997 124.241141 -4.248572 -4.187753 -0.000010 0.000002 1.292461 76.585661 8.845613 -4.753509 30.383502 -7.326431 0.606037 -53.211238 179.713137 0.683292 0.000010 -0.000004 -1.151880 -57.395357 -0.292461 2.103057 -0.000006 0.000003 -1.398110 75.509230 -7.302638 -0.333256 30.296370 7.329631 -0.619880 
